<svg width="24" height="24" viewBox="0 0 24 24" fill="none" xmlns="http://www.w3.org/2000/svg">
<path d="M19.3 19C19.7509 19 20.1833 18.8265 20.5021 18.5176C20.8209 18.2087 21 17.7898 21 17.3529V9.11765C21 8.68082 20.8209 8.26188 20.5021 7.953C20.1833 7.64412 19.7509 7.47059 19.3 7.47059H12.585C12.3007 7.47329 12.0202 7.40686 11.7693 7.27737C11.5183 7.14789 11.3049 6.95949 11.1485 6.72941L10.46 5.74118C10.3052 5.51345 10.0945 5.32651 9.84672 5.19715C9.59897 5.06779 9.32194 5.00004 9.0405 5H4.7C4.24913 5 3.81673 5.17353 3.49792 5.48241C3.17911 5.7913 3 6.21023 3 6.64706V17.3529C3 17.7898 3.17911 18.2087 3.49792 18.5176C3.81673 18.8265 4.24913 19 4.7 19H19.3Z" stroke="#21272A" style="stroke:#21272A;stroke:color(display-p3 0.1294 0.1529 0.1647);stroke-opacity:1;" stroke-width="1.5" stroke-linecap="round" stroke-linejoin="round"/>
</svg>