<svg width="20" height="20" viewBox="0 0 20 20" fill="none" xmlns="http://www.w3.org/2000/svg">
<path d="M12.7648 11.6668C15.5262 11.6668 17.7648 13.9054 17.7648 16.6668H13.75M10.1626 4.5835C10.7734 3.82144 11.7121 3.3335 12.7648 3.3335C14.6057 3.3335 16.0981 4.82588 16.0981 6.66683C16.0981 8.50778 14.6057 10.0002 12.7648 10.0002C11.7121 10.0002 10.7734 9.51221 10.1626 8.75016M10.8333 6.66683C10.8333 8.50778 9.34095 10.0002 7.5 10.0002C5.65905 10.0002 4.16667 8.50778 4.16667 6.66683C4.16667 4.82588 5.65905 3.3335 7.5 3.3335C9.34095 3.3335 10.8333 4.82588 10.8333 6.66683ZM2.5 16.6668C2.5 13.9054 4.73858 11.6668 7.5 11.6668C10.2614 11.6668 12.5 13.9054 12.5 16.6668H2.5Z" stroke="#0B99FF" style="stroke:#0B99FF;stroke:color(display-p3 0.0431 0.6000 1.0000);stroke-opacity:1;" stroke-width="1.5" stroke-linecap="round" stroke-linejoin="round"/>
</svg>
