<svg width="11" height="11" viewBox="0 0 11 11" fill="none" xmlns="http://www.w3.org/2000/svg">
<path d="M9.58887 0C9.63381 0 9.67794 0.00414283 9.7207 0.0117188C9.72623 0.0127003 9.73179 0.0135423 9.7373 0.0146484C9.75068 0.0173314 9.76326 0.0229826 9.77637 0.0263672C9.8096 0.0349386 9.84297 0.0434445 9.875 0.0566406C9.926 0.0777011 9.97394 0.104485 10.0186 0.135742C10.0538 0.160458 10.0876 0.188237 10.1191 0.219727C10.1752 0.275828 10.2173 0.340337 10.252 0.407227C10.2616 0.42583 10.2732 0.443418 10.2812 0.462891C10.2887 0.480958 10.2928 0.500067 10.2988 0.518555C10.3227 0.591765 10.3389 0.66883 10.3389 0.75V9.58887C10.3389 10.0031 10.0031 10.3389 9.58887 10.3389C9.17484 10.3387 8.83888 10.0029 8.83887 9.58887V2.56055L1.28027 10.1191C0.987373 10.4119 0.512588 10.412 0.219727 10.1191C-0.0729628 9.82626 -0.0730148 9.35144 0.219727 9.05859L7.77832 1.5H0.75C0.335869 1.49991 1.6487e-05 1.16415 0 0.75C0 0.335839 0.335859 8.55152e-05 0.75 0H9.58887Z" fill="#070707" style="fill:#070707;fill:color(display-p3 0.0257 0.0257 0.0257);fill-opacity:1;"/>
</svg>
