<svg width="16" height="16" viewBox="0 0 16 16" fill="none" xmlns="http://www.w3.org/2000/svg">
<path d="M12.4189 2.83008C12.4639 2.83008 12.508 2.83422 12.5508 2.8418C12.5563 2.84278 12.5619 2.84362 12.5674 2.84473C12.5808 2.84741 12.5933 2.85306 12.6064 2.85645C12.6397 2.86502 12.673 2.87352 12.7051 2.88672C12.7561 2.90778 12.804 2.93456 12.8486 2.96582C12.8839 2.99054 12.9177 3.01832 12.9492 3.0498C13.0053 3.10591 13.0474 3.17041 13.082 3.2373C13.0917 3.25591 13.1032 3.2735 13.1113 3.29297C13.1188 3.31104 13.1229 3.33014 13.1289 3.34863C13.1528 3.42184 13.1689 3.49891 13.1689 3.58008V12.4189C13.1689 12.8331 12.8331 13.1689 12.4189 13.1689C12.0049 13.1687 11.669 12.833 11.6689 12.4189V5.39062L4.11035 12.9492C3.81745 13.242 3.34267 13.2421 3.0498 12.9492C2.75712 12.6563 2.75706 12.1815 3.0498 11.8887L10.6084 4.33008H3.58008C3.16595 4.32999 2.83009 3.99422 2.83008 3.58008C2.83008 3.16592 3.16594 2.83016 3.58008 2.83008H12.4189Z" fill="#070707" style="fill:#070707;fill:color(display-p3 0.0257 0.0257 0.0257);fill-opacity:1;"/>
</svg>
