<svg width="24" height="24" viewBox="0 0 24 24" fill="none" xmlns="http://www.w3.org/2000/svg">
<rect width="24" height="24" rx="5" fill="#FF6CAA" style="fill:#FF6CAA;fill:color(display-p3 1.0000 0.4224 0.6650);fill-opacity:1;"/>
<path d="M6.16669 6.75H9.66669C10.2855 6.75 10.879 6.99583 11.3166 7.43342C11.7542 7.871 12 8.46449 12 9.08333V17.25C12 16.7859 11.8156 16.3408 11.4875 16.0126C11.1593 15.6844 10.7141 15.5 10.25 15.5H6.16669V6.75Z" stroke="white" style="stroke:white;stroke-opacity:1;" stroke-width="1.5" stroke-linecap="round" stroke-linejoin="round"/>
<path d="M17.8333 6.75H14.3333C13.7145 6.75 13.121 6.99583 12.6834 7.43342C12.2458 7.871 12 8.46449 12 9.08333V17.25C12 16.7859 12.1844 16.3408 12.5126 16.0126C12.8408 15.6844 13.2859 15.5 13.75 15.5H17.8333V6.75Z" stroke="white" style="stroke:white;stroke-opacity:1;" stroke-width="1.5" stroke-linecap="round" stroke-linejoin="round"/>
</svg>
