<svg width="91" height="23" viewBox="0 0 91 23" fill="none" xmlns="http://www.w3.org/2000/svg">
<g clip-path="url(#clip0_1656_58820)">
<path d="M55.2641 0.106177C56.9037 -0.0256603 58.5553 0.169568 60.1195 0.67942C63.3575 1.76019 64.949 3.56666 66.3891 6.45774C64.8927 7.12946 63.4194 7.55004 61.8285 8.31516C61.2752 6.99849 60.286 5.91159 59.0277 5.23704C57.6567 4.51104 56.0155 4.31119 54.5287 4.78098C53.075 5.25102 51.8669 6.27913 51.1713 7.63938C49.7004 10.5004 50.4162 15.6236 53.5971 16.9782C57.025 18.438 60.1578 17.1775 61.7572 13.9128L61.8569 13.8337C62.746 14.0777 65.4403 15.1652 66.4643 15.5271C64.7756 19.1432 61.7347 21.5877 57.7797 22.0759C49.0466 23.1536 42.5306 14.583 46.1723 6.46751C47.9119 2.58874 51.154 0.581792 55.2641 0.106177Z" fill="#0B99FF" style="fill:#0B99FF;fill:color(display-p3 0.0431 0.6000 1.0000);fill-opacity:1;"/>
<path fill-rule="evenodd" clip-rule="evenodd" d="M78.2279 0.0934821C84.2983 -0.694584 89.8579 3.58686 90.644 9.65598C91.4308 15.7253 87.1471 21.2828 81.0766 22.0681C75.0083 22.8525 69.4525 18.5715 68.6654 12.5046C67.8786 6.43771 72.1607 0.881652 78.2279 0.0934821ZM84.8539 8.65501C83.9342 5.34858 81.8149 4.12619 78.5248 4.34348C77.206 4.61466 75.9801 5.55643 75.2611 6.69797C73.4515 9.56936 73.6684 14.9941 76.7289 16.9968C78.0287 17.8475 79.2647 17.8503 80.7152 17.7497C82.222 17.3817 83.3736 16.6796 84.1498 15.3327C85.1958 13.5197 85.406 10.6439 84.8539 8.65501Z" fill="#0B99FF" style="fill:#0B99FF;fill:color(display-p3 0.0431 0.6000 1.0000);fill-opacity:1;"/>
<path fill-rule="evenodd" clip-rule="evenodd" d="M30.9941 0.167773C34.503 -0.194762 38.3301 1.10519 40.5654 3.88848C41.385 4.9091 41.8623 5.83797 42.4599 6.98906C41.3253 7.65059 40.176 8.21794 39.04 8.86504C35.2363 10.9985 31.4712 13.2012 27.748 15.4725C29.9822 17.8974 33.8964 18.3069 36.4346 16.0057C37.1737 15.3354 37.4837 14.7401 37.9424 13.8699C39.02 14.3507 39.8814 14.6997 40.9902 15.1033L42.5137 15.616C39.2942 22.4673 31.0375 24.3886 25.0918 19.7059C22.7802 17.9009 21.2959 15.238 20.9756 12.323C20.232 5.92002 24.7027 0.891048 30.9941 0.167773ZM36.0508 6.43633C34.3884 4.99726 33.4156 4.5445 31.165 4.70293C31.0995 4.70728 31.0331 4.71375 30.9678 4.72148C27.1842 5.86721 25.7912 8.15535 26.1084 12.0721L29.375 10.2029C31.6351 8.8459 33.8073 7.73528 36.0508 6.43633Z" fill="#0B99FF" style="fill:#0B99FF;fill:color(display-p3 0.0431 0.6000 1.0000);fill-opacity:1;"/>
<path d="M0 0.198303H4.76009V9.16924L13.1513 0.198303H19.376L9.76429 10.2372L20.1999 21.8018H13.548L4.76009 11.5493V21.8018H0V0.198303Z" fill="#0B99FF" style="fill:#0B99FF;fill:color(display-p3 0.0431 0.6000 1.0000);fill-opacity:1;"/>
</g>
<defs>
<clipPath id="clip0_1656_58820">
<rect width="90.7371" height="22.2763" fill="white" style="fill:white;fill-opacity:1;"/>
</clipPath>
</defs>
</svg>
