<svg width="24" height="24" viewBox="0 0 24 24" fill="none" xmlns="http://www.w3.org/2000/svg">
<path fill-rule="evenodd" clip-rule="evenodd" d="M16.7663 6.34956C17.0103 6.10573 17.4061 6.10581 17.6501 6.34956C17.8941 6.59358 17.894 6.98926 17.6501 7.23335L12.8835 11.9999L17.6501 16.7666C17.8942 17.0106 17.8942 17.4063 17.6501 17.6503C17.406 17.8944 17.0104 17.8944 16.7663 17.6503L11.9997 12.8837L7.23313 17.6503C6.98904 17.8943 6.59337 17.8944 6.34935 17.6503C6.10559 17.4063 6.10552 17.0106 6.34935 16.7666L11.1159 11.9999L6.34935 7.23335C6.1057 6.98924 6.10541 6.59349 6.34935 6.34956C6.59328 6.10563 6.98902 6.10592 7.23313 6.34956L11.9997 11.1162L16.7663 6.34956Z" fill="#21272A" style="fill:#21272A;fill:color(display-p3 0.1294 0.1529 0.1647);fill-opacity:1;"/>
</svg>
