<svg width="24" height="24" viewBox="0 0 24 24" fill="none" xmlns="http://www.w3.org/2000/svg">
<path d="M7.75 5.82422C9.46176 6.17161 10.75 7.68573 10.75 9.5C10.75 11.3142 9.46166 12.8273 7.75 13.1748V21.5H6.25V13.1748C4.53834 12.8273 3.25 11.3142 3.25 9.5C3.25 7.68573 4.53824 6.17161 6.25 5.82422V3H7.75V5.82422ZM18.25 11.8242C19.9618 12.1716 21.25 13.6857 21.25 15.5C21.25 17.3142 19.9617 18.8273 18.25 19.1748V21.5H16.75V19.1748C15.0383 18.8273 13.75 17.3142 13.75 15.5C13.75 13.6857 15.0382 12.1716 16.75 11.8242V3H18.25V11.8242ZM17.5 13.25C16.2574 13.25 15.25 14.2574 15.25 15.5C15.25 16.7426 16.2574 17.75 17.5 17.75C18.7426 17.75 19.75 16.7426 19.75 15.5C19.75 14.2574 18.7426 13.25 17.5 13.25ZM7 7.25C5.75736 7.25 4.75 8.25736 4.75 9.5C4.75 10.7426 5.75736 11.75 7 11.75C8.24264 11.75 9.25 10.7426 9.25 9.5C9.25 8.25736 8.24264 7.25 7 7.25Z" fill="black" style="fill:black;fill-opacity:1;"/>
</svg>
