<svg width="16" height="16" viewBox="0 0 16 16" fill="none" xmlns="http://www.w3.org/2000/svg">
<path d="M12.4178 9.00684C12.7624 8.77746 13.2282 8.87053 13.4579 9.21484C13.6876 9.55937 13.5942 10.025 13.2499 10.2549L8.41687 13.4775C8.16509 13.6454 7.8367 13.6452 7.58484 13.4775L2.75085 10.2549C2.40621 10.0251 2.31309 9.55949 2.54285 9.21484C2.7727 8.87052 3.23837 8.77717 3.58289 9.00684L7.99988 11.9512L12.4178 9.00684ZM7.58484 2.70117C7.83668 2.53361 8.16514 2.53336 8.41687 2.70117L13.2499 5.92383C13.5943 6.15362 13.6875 6.61931 13.4579 6.96387C13.2281 7.30829 12.7624 7.40138 12.4178 7.17188L7.99988 4.22754L3.58289 7.17188C3.2383 7.40159 2.77265 7.30836 2.54285 6.96387C2.31309 6.61922 2.40621 6.15359 2.75085 5.92383L7.58484 2.70117Z" fill="#21272A"/>
</svg>
