<svg width="32" height="32" viewBox="0 0 32 32" fill="none" xmlns="http://www.w3.org/2000/svg">
<path d="M8 0.5H24C28.1421 0.5 31.5 3.85786 31.5 8V24C31.5 28.1421 28.1421 31.5 24 31.5H8C3.85786 31.5 0.5 28.1421 0.5 24V8C0.5 3.85786 3.85786 0.5 8 0.5Z" fill="white" style="fill:white;fill-opacity:1;"/>
<path d="M8 0.5H24C28.1421 0.5 31.5 3.85786 31.5 8V24C31.5 28.1421 28.1421 31.5 24 31.5H8C3.85786 31.5 0.5 28.1421 0.5 24V8C0.5 3.85786 3.85786 0.5 8 0.5Z" stroke="#BCBCBC" style="stroke:#BCBCBC;stroke:color(display-p3 0.7373 0.7373 0.7373);stroke-opacity:1;"/>
<path fill-rule="evenodd" clip-rule="evenodd" d="M16 8.91663C16.3452 8.91663 16.625 9.19645 16.625 9.54163V22.4583C16.625 22.8035 16.3452 23.0833 16 23.0833C15.6548 23.0833 15.375 22.8035 15.375 22.4583V9.54163C15.375 9.19645 15.6548 8.91663 16 8.91663Z" fill="#21272A" style="fill:#21272A;fill:color(display-p3 0.1294 0.1529 0.1647);fill-opacity:1;"/>
<path fill-rule="evenodd" clip-rule="evenodd" d="M8.91675 16C8.91675 15.6548 9.19657 15.375 9.54175 15.375H22.4584C22.8036 15.375 23.0834 15.6548 23.0834 16C23.0834 16.3452 22.8036 16.625 22.4584 16.625H9.54175C9.19657 16.625 8.91675 16.3452 8.91675 16Z" fill="#21272A" style="fill:#21272A;fill:color(display-p3 0.1294 0.1529 0.1647);fill-opacity:1;"/>
</svg>
