<svg width="20" height="20" viewBox="0 0 20 20" fill="none" xmlns="http://www.w3.org/2000/svg">
  <path d="M9.99984 7.5V15H8.63785V8.75281H8.57038L6.6665 9.98875V8.79689L8.63785 7.5H9.99984Z" fill="#21272A" style="fill:#21272A;fill:color(display-p3 0.1294 0.1529 0.1647);fill-opacity:1;"/>
  <rect x="2.5" y="5" width="12.5" height="12.5" rx="2" stroke="black" style="stroke:black;stroke-opacity:1;" stroke-width="1.5"/>
  <path d="M15.5 1.75C17.0188 1.75 18.25 2.98122 18.25 4.5V13C18.25 14.101 17.6016 15.0481 16.667 15.4873V13.4434C16.7194 13.3054 16.75 13.1564 16.75 13V4.5C16.75 3.80964 16.1904 3.25 15.5 3.25H7C6.84361 3.25 6.69463 3.28056 6.55664 3.33301H4.5127C4.95195 2.39841 5.89897 1.75 7 1.75H15.5Z" fill="black" style="fill:black;fill-opacity:1;"/>
</svg>

