<svg width="28" height="28" viewBox="0 0 28 28" fill="none" xmlns="http://www.w3.org/2000/svg">
<mask id="path-1-outside-1_1954_43237" maskUnits="userSpaceOnUse" x="0" y="0" width="28" height="28" fill="black">
<rect fill="white" width="28" height="28"/>
<path d="M2 8C2 4.68629 4.68629 2 8 2H20C23.3137 2 26 4.68629 26 8V20C26 23.3137 23.3137 26 20 26H8C4.68629 26 2 23.3137 2 20V8Z"/>
</mask>
<path d="M2 8C2 4.68629 4.68629 2 8 2H20C23.3137 2 26 4.68629 26 8V20C26 23.3137 23.3137 26 20 26H8C4.68629 26 2 23.3137 2 20V8Z" fill="#0B99FF" style="fill:#0B99FF;fill:color(display-p3 0.0431 0.6000 1.0000);fill-opacity:1;"/>
<path d="M8 2V4H20V2V0H8V2ZM26 8H24V20H26H28V8H26ZM20 26V24H8V26V28H20V26ZM2 20H4V8H2H0V20H2ZM8 26V24C5.79086 24 4 22.2091 4 20H2H0C0 24.4183 3.58172 28 8 28V26ZM26 20H24C24 22.2091 22.2091 24 20 24V26V28C24.4183 28 28 24.4183 28 20H26ZM20 2V4C22.2091 4 24 5.79086 24 8H26H28C28 3.58172 24.4183 0 20 0V2ZM8 2V0C3.58172 0 0 3.58172 0 8H2H4C4 5.79086 5.79086 4 8 4V2Z" fill="#0B99FF" style="fill:#0B99FF;fill:color(display-p3 0.0431 0.6000 1.0000);fill-opacity:1;" mask="url(#path-1-outside-1_1954_43237)"/>
<path d="M9.75 7.82422C11.4618 8.17161 12.75 9.68573 12.75 11.5C12.75 13.3142 11.4617 14.8273 9.75 15.1748V23.5H8.25V15.1748C6.53834 14.8273 5.25 13.3142 5.25 11.5C5.25 9.68573 6.53824 8.17161 8.25 7.82422V5H9.75V7.82422ZM20.25 13.8242C21.9618 14.1716 23.25 15.6857 23.25 17.5C23.25 19.3142 21.9617 20.8273 20.25 21.1748V23.5H18.75V21.1748C17.0383 20.8273 15.75 19.3142 15.75 17.5C15.75 15.6857 17.0382 14.1716 18.75 13.8242V5H20.25V13.8242ZM19.5 15.25C18.2574 15.25 17.25 16.2574 17.25 17.5C17.25 18.7426 18.2574 19.75 19.5 19.75C20.7426 19.75 21.75 18.7426 21.75 17.5C21.75 16.2574 20.7426 15.25 19.5 15.25ZM9 9.25C7.75736 9.25 6.75 10.2574 6.75 11.5C6.75 12.7426 7.75736 13.75 9 13.75C10.2426 13.75 11.25 12.7426 11.25 11.5C11.25 10.2574 10.2426 9.25 9 9.25Z" fill="white" style="fill:white;fill-opacity:1;"/>
</svg>
