<svg width="36" height="36" viewBox="0 0 36 36" fill="none" xmlns="http://www.w3.org/2000/svg">
<rect width="36" height="36" rx="9" fill="#0B99FF" fill-opacity="0.08" style="fill:#0B99FF;fill:color(display-p3 0.0431 0.6000 1.0000);fill-opacity:0.08;"/>
<path d="M23.475 23.25C23.8132 23.25 24.1375 23.1199 24.3766 22.8882C24.6157 22.6565 24.75 22.3423 24.75 22.0147V15.8382C24.75 15.5106 24.6157 15.1964 24.3766 14.9648C24.1375 14.7331 23.8132 14.6029 23.475 14.6029H18.4388C18.2255 14.605 18.0152 14.5551 17.8269 14.458C17.6387 14.3609 17.4787 14.2196 17.3614 14.0471L16.845 13.3059C16.7289 13.1351 16.5709 12.9949 16.385 12.8979C16.1992 12.8008 15.9915 12.75 15.7804 12.75H12.525C12.1868 12.75 11.8625 12.8801 11.6234 13.1118C11.3843 13.3435 11.25 13.6577 11.25 13.9853V22.0147C11.25 22.3423 11.3843 22.6565 11.6234 22.8882C11.8625 23.1199 12.1868 23.25 12.525 23.25H23.475Z" stroke="#0B99FF" style="stroke:#0B99FF;stroke:color(display-p3 0.0431 0.6000 1.0000);stroke-opacity:1;" stroke-width="1.5" stroke-linecap="round" stroke-linejoin="round"/>
</svg>
