<svg width="36" height="36" viewBox="0 0 36 36" fill="none" xmlns="http://www.w3.org/2000/svg">
<rect width="36" height="36" rx="9" fill="#FF005E" fill-opacity="0.06" style="fill:#FF005E;fill:color(display-p3 1.0000 0.0000 0.3667);fill-opacity:0.06;"/>
<path d="M18 15.4165V24.7498" stroke="#ED388C" style="stroke:#ED388C;stroke:color(display-p3 0.9284 0.2205 0.5509);stroke-opacity:1;" stroke-width="1.125" stroke-linecap="round" stroke-linejoin="round"/>
<path d="M11.9999 22.75C11.8231 22.75 11.6535 22.6798 11.5285 22.5547C11.4035 22.4297 11.3333 22.2601 11.3333 22.0833V13.4167C11.3333 13.2399 11.4035 13.0703 11.5285 12.9453C11.6535 12.8202 11.8231 12.75 11.9999 12.75H15.3332C16.0405 12.75 16.7188 13.031 17.2189 13.531C17.719 14.0311 17.9999 14.7094 17.9999 15.4167C17.9999 14.7094 18.2809 14.0311 18.781 13.531C19.2811 13.031 19.9593 12.75 20.6666 12.75H23.9999C24.1767 12.75 24.3463 12.8202 24.4713 12.9453C24.5963 13.0703 24.6666 13.2399 24.6666 13.4167V22.0833C24.6666 22.2601 24.5963 22.4297 24.4713 22.5547C24.3463 22.6798 24.1767 22.75 23.9999 22.75H19.9999C19.4695 22.75 18.9608 22.9607 18.5857 23.3358C18.2106 23.7109 17.9999 24.2196 17.9999 24.75C17.9999 24.2196 17.7892 23.7109 17.4141 23.3358C17.0391 22.9607 16.5303 22.75 15.9999 22.75H11.9999Z" stroke="#ED388C" style="stroke:#ED388C;stroke:color(display-p3 0.9284 0.2205 0.5509);stroke-opacity:1;" stroke-width="1.125" stroke-linecap="round" stroke-linejoin="round"/>
</svg>
