<svg width="36" height="36" viewBox="0 0 36 36" fill="none" xmlns="http://www.w3.org/2000/svg">
<rect width="36" height="36" rx="9" fill="#0B99FF" fill-opacity="0.08" style="fill:#0B99FF;fill:color(display-p3 0.0431 0.6000 1.0000);fill-opacity:0.08;"/>
<path d="M18 15.4167V24.7501" stroke="#0B99FF" style="stroke:#0B99FF;stroke:color(display-p3 0.0431 0.6000 1.0000);stroke-opacity:1;" stroke-width="1.125" stroke-linecap="round" stroke-linejoin="round"/>
<path d="M11.9997 22.75C11.8229 22.75 11.6533 22.6798 11.5283 22.5547C11.4032 22.4297 11.333 22.2601 11.333 22.0833V13.4167C11.333 13.2399 11.4032 13.0703 11.5283 12.9453C11.6533 12.8202 11.8229 12.75 11.9997 12.75H15.333C16.0402 12.75 16.7185 13.031 17.2186 13.531C17.7187 14.0311 17.9997 14.7094 17.9997 15.4167C17.9997 14.7094 18.2806 14.0311 18.7807 13.531C19.2808 13.031 19.9591 12.75 20.6663 12.75H23.9997C24.1765 12.75 24.346 12.8202 24.4711 12.9453C24.5961 13.0703 24.6663 13.2399 24.6663 13.4167V22.0833C24.6663 22.2601 24.5961 22.4297 24.4711 22.5547C24.346 22.6798 24.1765 22.75 23.9997 22.75H19.9997C19.4692 22.75 18.9605 22.9607 18.5855 23.3358C18.2104 23.7109 17.9997 24.2196 17.9997 24.75C17.9997 24.2196 17.789 23.7109 17.4139 23.3358C17.0388 22.9607 16.5301 22.75 15.9997 22.75H11.9997Z" stroke="#0B99FF" style="stroke:#0B99FF;stroke:color(display-p3 0.0431 0.6000 1.0000);stroke-opacity:1;" stroke-width="1.125" stroke-linecap="round" stroke-linejoin="round"/>
</svg>
