<svg width="20" height="20" viewBox="0 0 20 20" fill="none" xmlns="http://www.w3.org/2000/svg">
<path d="M10 7.12964V17.5" stroke="#21272A" style="stroke:#21272A;stroke:color(display-p3 0.1294 0.1529 0.1647);stroke-opacity:1;" stroke-width="1.5" stroke-linecap="round" stroke-linejoin="round"/>
<path d="M3.33327 15.2779C3.13681 15.2779 2.9484 15.1998 2.80949 15.0609C2.67057 14.922 2.59253 14.7336 2.59253 14.5371V4.90749C2.59253 4.71103 2.67057 4.52262 2.80949 4.38371C2.9484 4.24479 3.13681 4.16675 3.33327 4.16675H7.03697C7.8228 4.16675 8.57644 4.47892 9.1321 5.03458C9.68776 5.59024 9.99993 6.34388 9.99993 7.12971C9.99993 6.34388 10.3121 5.59024 10.8678 5.03458C11.4234 4.47892 12.1771 4.16675 12.9629 4.16675H16.6666C16.863 4.16675 17.0515 4.24479 17.1904 4.38371C17.3293 4.52262 17.4073 4.71103 17.4073 4.90749V14.5371C17.4073 14.7336 17.3293 14.922 17.1904 15.0609C17.0515 15.1998 16.863 15.2779 16.6666 15.2779H12.2222C11.6328 15.2779 11.0676 15.512 10.6508 15.9287C10.2341 16.3455 9.99993 16.9107 9.99993 17.5001C9.99993 16.9107 9.76581 16.3455 9.34906 15.9287C8.93231 15.512 8.36708 15.2779 7.77771 15.2779H3.33327Z" stroke="#21272A" style="stroke:#21272A;stroke:color(display-p3 0.1294 0.1529 0.1647);stroke-opacity:1;" stroke-width="1.5" stroke-linecap="round" stroke-linejoin="round"/>
</svg>
