<svg width="24" height="24" viewBox="0 0 24 24" fill="none" xmlns="http://www.w3.org/2000/svg">
<path d="M4 0.5H20C21.933 0.5 23.5 2.067 23.5 4V20C23.5 21.933 21.933 23.5 20 23.5H4C2.067 23.5 0.5 21.933 0.5 20V4C0.5 2.067 2.067 0.5 4 0.5Z" fill="white" style="fill:white;fill-opacity:1;"/>
<path d="M4 0.5H20C21.933 0.5 23.5 2.067 23.5 4V20C23.5 21.933 21.933 23.5 20 23.5H4C2.067 23.5 0.5 21.933 0.5 20V4C0.5 2.067 2.067 0.5 4 0.5Z" stroke="#BCBCBC" style="stroke:#BCBCBC;stroke:color(display-p3 0.7373 0.7373 0.7373);stroke-opacity:1;"/>
<path d="M16 12.3332C16.184 12.3332 16.3333 12.1839 16.3333 11.9998C16.3333 11.8158 16.184 11.6665 16 11.6665C15.8159 11.6665 15.6666 11.8158 15.6666 11.9998C15.6666 12.1839 15.8159 12.3332 16 12.3332Z" fill="#21272A" stroke="#21272A" style="fill:#21272A;fill:color(display-p3 0.1294 0.1529 0.1647);fill-opacity:1;stroke:#21272A;stroke:color(display-p3 0.1294 0.1529 0.1647);stroke-opacity:1;" stroke-width="1.5" stroke-linecap="round" stroke-linejoin="round"/>
<path d="M12 12.3332C12.184 12.3332 12.3333 12.1839 12.3333 11.9998C12.3333 11.8158 12.184 11.6665 12 11.6665C11.8159 11.6665 11.6666 11.8158 11.6666 11.9998C11.6666 12.1839 11.8159 12.3332 12 12.3332Z" fill="#21272A" stroke="#21272A" style="fill:#21272A;fill:color(display-p3 0.1294 0.1529 0.1647);fill-opacity:1;stroke:#21272A;stroke:color(display-p3 0.1294 0.1529 0.1647);stroke-opacity:1;" stroke-width="1.5" stroke-linecap="round" stroke-linejoin="round"/>
<path d="M7.99996 12.3332C8.18405 12.3332 8.33329 12.1839 8.33329 11.9998C8.33329 11.8158 8.18405 11.6665 7.99996 11.6665C7.81587 11.6665 7.66663 11.8158 7.66663 11.9998C7.66663 12.1839 7.81587 12.3332 7.99996 12.3332Z" fill="#21272A" stroke="#21272A" style="fill:#21272A;fill:color(display-p3 0.1294 0.1529 0.1647);fill-opacity:1;stroke:#21272A;stroke:color(display-p3 0.1294 0.1529 0.1647);stroke-opacity:1;" stroke-width="1.5" stroke-linecap="round" stroke-linejoin="round"/>
</svg>
