<svg width="24" height="24" viewBox="0 0 24 24" fill="none" xmlns="http://www.w3.org/2000/svg">
<path d="M17.7198 5.21973C18.0127 4.92683 18.4875 4.92683 18.7804 5.21973C19.0731 5.51263 19.0732 5.98744 18.7804 6.28027L13.0607 12L18.7804 17.7197C19.0731 18.0126 19.0732 18.4874 18.7804 18.7803C18.4876 19.0731 18.0128 19.073 17.7198 18.7803L12.0001 13.0605L6.2804 18.7803C5.98756 19.0731 5.51276 19.073 5.21985 18.7803C4.92696 18.4874 4.92696 18.0126 5.21985 17.7197L10.9396 12L5.21985 6.28027C4.92696 5.98738 4.92696 5.51262 5.21985 5.21973C5.51274 4.92683 5.9875 4.92683 6.2804 5.21973L12.0001 10.9395L17.7198 5.21973Z" fill="#21272A" style="fill:#21272A;fill:color(display-p3 0.1294 0.1529 0.1647);fill-opacity:1;"/>
</svg>
