<svg width="87" height="54" viewBox="0 0 87 54" fill="none" xmlns="http://www.w3.org/2000/svg">
<rect width="87" height="46" rx="8" fill="#343A3F" style="fill:#343A3F;fill:color(display-p3 0.2039 0.2275 0.2471);fill-opacity:1;"/>
<path d="M17.3203 16.625H21.0859C21.9401 16.625 22.6615 16.7552 23.25 17.0156C23.8438 17.276 24.2943 17.6615 24.6016 18.1719C24.9141 18.6771 25.0703 19.2995 25.0703 20.0391C25.0703 20.5599 24.9635 21.0365 24.75 21.4688C24.5417 21.8958 24.2396 22.2604 23.8438 22.5625C23.4531 22.8594 22.9844 23.0807 22.4375 23.2266L22.0156 23.3906H18.4766L18.4609 22.1641H21.1328C21.6745 22.1641 22.125 22.0703 22.4844 21.8828C22.8438 21.6901 23.1146 21.4323 23.2969 21.1094C23.4792 20.7865 23.5703 20.4297 23.5703 20.0391C23.5703 19.6016 23.4844 19.2188 23.3125 18.8906C23.1406 18.5625 22.8698 18.3099 22.5 18.1328C22.1354 17.9505 21.6641 17.8594 21.0859 17.8594H18.8281V28H17.3203V16.625ZM23.9688 28L21.2031 22.8438L22.7734 22.8359L25.5781 27.9062V28H23.9688ZM30.4688 28.1562C29.8802 28.1562 29.3464 28.0573 28.8672 27.8594C28.3932 27.6562 27.9844 27.3724 27.6406 27.0078C27.3021 26.6432 27.0417 26.2109 26.8594 25.7109C26.6771 25.2109 26.5859 24.6641 26.5859 24.0703V23.7422C26.5859 23.0547 26.6875 22.4427 26.8906 21.9062C27.0938 21.3646 27.3698 20.9062 27.7188 20.5312C28.0677 20.1562 28.4635 19.8724 28.9062 19.6797C29.349 19.487 29.8073 19.3906 30.2812 19.3906C30.8854 19.3906 31.4062 19.4948 31.8438 19.7031C32.2865 19.9115 32.6484 20.2031 32.9297 20.5781C33.2109 20.9479 33.4193 21.3854 33.5547 21.8906C33.6901 22.3906 33.7578 22.9375 33.7578 23.5312V24.1797H27.4453V23H32.3125V22.8906C32.2917 22.5156 32.2135 22.151 32.0781 21.7969C31.9479 21.4427 31.7396 21.151 31.4531 20.9219C31.1667 20.6927 30.776 20.5781 30.2812 20.5781C29.9531 20.5781 29.651 20.6484 29.375 20.7891C29.099 20.9245 28.862 21.1276 28.6641 21.3984C28.4661 21.6693 28.3125 22 28.2031 22.3906C28.0938 22.7812 28.0391 23.2318 28.0391 23.7422V24.0703C28.0391 24.4714 28.0938 24.849 28.2031 25.2031C28.3177 25.5521 28.4818 25.8594 28.6953 26.125C28.9141 26.3906 29.1771 26.599 29.4844 26.75C29.7969 26.901 30.151 26.9766 30.5469 26.9766C31.0573 26.9766 31.4896 26.8724 31.8438 26.6641C32.1979 26.4557 32.5078 26.1771 32.7734 25.8281L33.6484 26.5234C33.4661 26.7995 33.2344 27.0625 32.9531 27.3125C32.6719 27.5625 32.3255 27.7656 31.9141 27.9219C31.5078 28.0781 31.026 28.1562 30.4688 28.1562ZM40.3672 25.7578C40.3672 25.5495 40.3203 25.3568 40.2266 25.1797C40.138 24.9974 39.9531 24.8333 39.6719 24.6875C39.3958 24.5365 38.9792 24.4062 38.4219 24.2969C37.9531 24.1979 37.5286 24.0807 37.1484 23.9453C36.7734 23.8099 36.4531 23.6458 36.1875 23.4531C35.9271 23.2604 35.7266 23.0339 35.5859 22.7734C35.4453 22.513 35.375 22.2083 35.375 21.8594C35.375 21.526 35.4479 21.2109 35.5938 20.9141C35.7448 20.6172 35.9557 20.3542 36.2266 20.125C36.5026 19.8958 36.8333 19.7161 37.2188 19.5859C37.6042 19.4557 38.0339 19.3906 38.5078 19.3906C39.1849 19.3906 39.763 19.5104 40.2422 19.75C40.7214 19.9896 41.0885 20.3099 41.3438 20.7109C41.599 21.1068 41.7266 21.5469 41.7266 22.0312H40.2812C40.2812 21.7969 40.2109 21.5703 40.0703 21.3516C39.9349 21.1276 39.7344 20.9427 39.4688 20.7969C39.2083 20.651 38.888 20.5781 38.5078 20.5781C38.1068 20.5781 37.7812 20.6406 37.5312 20.7656C37.2865 20.8854 37.1068 21.0391 36.9922 21.2266C36.8828 21.4141 36.8281 21.612 36.8281 21.8203C36.8281 21.9766 36.8542 22.1172 36.9062 22.2422C36.9635 22.362 37.0625 22.474 37.2031 22.5781C37.3438 22.6771 37.5417 22.7708 37.7969 22.8594C38.0521 22.9479 38.3776 23.0365 38.7734 23.125C39.4661 23.2812 40.0365 23.4688 40.4844 23.6875C40.9323 23.9062 41.2656 24.1745 41.4844 24.4922C41.7031 24.8099 41.8125 25.1953 41.8125 25.6484C41.8125 26.0182 41.7344 26.3568 41.5781 26.6641C41.4271 26.9714 41.2057 27.237 40.9141 27.4609C40.6276 27.6797 40.2839 27.8516 39.8828 27.9766C39.487 28.0964 39.0417 28.1562 38.5469 28.1562C37.8021 28.1562 37.1719 28.0234 36.6562 27.7578C36.1406 27.4922 35.75 27.1484 35.4844 26.7266C35.2188 26.3047 35.0859 25.8594 35.0859 25.3906H36.5391C36.5599 25.7865 36.6745 26.1016 36.8828 26.3359C37.0911 26.5651 37.3464 26.7292 37.6484 26.8281C37.9505 26.9219 38.25 26.9688 38.5469 26.9688C38.9427 26.9688 39.2734 26.9167 39.5391 26.8125C39.8099 26.7083 40.0156 26.5651 40.1562 26.3828C40.2969 26.2005 40.3672 25.9922 40.3672 25.7578ZM47.25 19.5469V20.6562H42.6797V19.5469H47.25ZM44.2266 17.4922H45.6719V25.9062C45.6719 26.1927 45.7161 26.4089 45.8047 26.5547C45.8932 26.7005 46.0078 26.7969 46.1484 26.8438C46.2891 26.8906 46.4401 26.9141 46.6016 26.9141C46.7214 26.9141 46.8464 26.9036 46.9766 26.8828C47.112 26.8568 47.2135 26.8359 47.2812 26.8203L47.2891 28C47.1745 28.0365 47.0234 28.0703 46.8359 28.1016C46.6536 28.138 46.4323 28.1562 46.1719 28.1562C45.8177 28.1562 45.4922 28.0859 45.1953 27.9453C44.8984 27.8047 44.6615 27.5703 44.4844 27.2422C44.3125 26.9089 44.2266 26.4609 44.2266 25.8984V17.4922ZM48.4062 23.8672V23.6875C48.4062 23.0781 48.4948 22.513 48.6719 21.9922C48.849 21.4661 49.1042 21.0104 49.4375 20.625C49.7708 20.2344 50.1745 19.9323 50.6484 19.7188C51.1224 19.5 51.6536 19.3906 52.2422 19.3906C52.8359 19.3906 53.3698 19.5 53.8438 19.7188C54.3229 19.9323 54.7292 20.2344 55.0625 20.625C55.401 21.0104 55.6589 21.4661 55.8359 21.9922C56.013 22.513 56.1016 23.0781 56.1016 23.6875V23.8672C56.1016 24.4766 56.013 25.0417 55.8359 25.5625C55.6589 26.0833 55.401 26.5391 55.0625 26.9297C54.7292 27.3151 54.3255 27.6172 53.8516 27.8359C53.3828 28.0495 52.8516 28.1562 52.2578 28.1562C51.6641 28.1562 51.1302 28.0495 50.6562 27.8359C50.1823 27.6172 49.776 27.3151 49.4375 26.9297C49.1042 26.5391 48.849 26.0833 48.6719 25.5625C48.4948 25.0417 48.4062 24.4766 48.4062 23.8672ZM49.8516 23.6875V23.8672C49.8516 24.2891 49.901 24.6875 50 25.0625C50.099 25.4323 50.2474 25.7604 50.4453 26.0469C50.6484 26.3333 50.901 26.5599 51.2031 26.7266C51.5052 26.888 51.8568 26.9688 52.2578 26.9688C52.6536 26.9688 53 26.888 53.2969 26.7266C53.599 26.5599 53.849 26.3333 54.0469 26.0469C54.2448 25.7604 54.3932 25.4323 54.4922 25.0625C54.5964 24.6875 54.6484 24.2891 54.6484 23.8672V23.6875C54.6484 23.2708 54.5964 22.8776 54.4922 22.5078C54.3932 22.1328 54.2422 21.8021 54.0391 21.5156C53.8411 21.224 53.5911 20.9948 53.2891 20.8281C52.9922 20.6615 52.6432 20.5781 52.2422 20.5781C51.8464 20.5781 51.4974 20.6615 51.1953 20.8281C50.8984 20.9948 50.6484 21.224 50.4453 21.5156C50.2474 21.8021 50.099 22.1328 50 22.5078C49.901 22.8776 49.8516 23.2708 49.8516 23.6875ZM59.3594 20.875V28H57.9141V19.5469H59.3203L59.3594 20.875ZM62 19.5L61.9922 20.8438C61.8724 20.8177 61.7578 20.8021 61.6484 20.7969C61.5443 20.7865 61.4245 20.7812 61.2891 20.7812C60.9557 20.7812 60.6615 20.8333 60.4062 20.9375C60.151 21.0417 59.9349 21.1875 59.7578 21.375C59.5807 21.5625 59.4401 21.7865 59.3359 22.0469C59.237 22.3021 59.1719 22.5833 59.1406 22.8906L58.7344 23.125C58.7344 22.6146 58.7839 22.1354 58.8828 21.6875C58.987 21.2396 59.1458 20.8438 59.3594 20.5C59.5729 20.151 59.8438 19.8802 60.1719 19.6875C60.5052 19.4896 60.901 19.3906 61.3594 19.3906C61.4635 19.3906 61.5833 19.4036 61.7188 19.4297C61.8542 19.4505 61.9479 19.474 62 19.5ZM66.6875 28.1562C66.099 28.1562 65.5651 28.0573 65.0859 27.8594C64.612 27.6562 64.2031 27.3724 63.8594 27.0078C63.5208 26.6432 63.2604 26.2109 63.0781 25.7109C62.8958 25.2109 62.8047 24.6641 62.8047 24.0703V23.7422C62.8047 23.0547 62.9062 22.4427 63.1094 21.9062C63.3125 21.3646 63.5885 20.9062 63.9375 20.5312C64.2865 20.1562 64.6823 19.8724 65.125 19.6797C65.5677 19.487 66.026 19.3906 66.5 19.3906C67.1042 19.3906 67.625 19.4948 68.0625 19.7031C68.5052 19.9115 68.8672 20.2031 69.1484 20.5781C69.4297 20.9479 69.638 21.3854 69.7734 21.8906C69.9089 22.3906 69.9766 22.9375 69.9766 23.5312V24.1797H63.6641V23H68.5312V22.8906C68.5104 22.5156 68.4323 22.151 68.2969 21.7969C68.1667 21.4427 67.9583 21.151 67.6719 20.9219C67.3854 20.6927 66.9948 20.5781 66.5 20.5781C66.1719 20.5781 65.8698 20.6484 65.5938 20.7891C65.3177 20.9245 65.0807 21.1276 64.8828 21.3984C64.6849 21.6693 64.5312 22 64.4219 22.3906C64.3125 22.7812 64.2578 23.2318 64.2578 23.7422V24.0703C64.2578 24.4714 64.3125 24.849 64.4219 25.2031C64.5365 25.5521 64.7005 25.8594 64.9141 26.125C65.1328 26.3906 65.3958 26.599 65.7031 26.75C66.0156 26.901 66.3698 26.9766 66.7656 26.9766C67.276 26.9766 67.7083 26.8724 68.0625 26.6641C68.4167 26.4557 68.7266 26.1771 68.9922 25.8281L69.8672 26.5234C69.6849 26.7995 69.4531 27.0625 69.1719 27.3125C68.8906 27.5625 68.5443 27.7656 68.1328 27.9219C67.7266 28.0781 67.2448 28.1562 66.6875 28.1562Z" fill="white" style="fill:white;fill-opacity:1;"/>
<path d="M44 54L52 46H36L44 54Z" fill="#343A3F" style="fill:#343A3F;fill:color(display-p3 0.2039 0.2275 0.2471);fill-opacity:1;"/>
</svg>
