<svg width="32" height="32" viewBox="0 0 32 32" fill="none" xmlns="http://www.w3.org/2000/svg">
<path d="M8 0.5H24C28.1421 0.5 31.5 3.85786 31.5 8V24C31.5 28.1421 28.1421 31.5 24 31.5H8C3.85786 31.5 0.5 28.1421 0.5 24V8C0.5 3.85786 3.85786 0.5 8 0.5Z" fill="white" style="fill:white;fill-opacity:1;"/>
<path d="M8 0.5H24C28.1421 0.5 31.5 3.85786 31.5 8V24C31.5 28.1421 28.1421 31.5 24 31.5H8C3.85786 31.5 0.5 28.1421 0.5 24V8C0.5 3.85786 3.85786 0.5 8 0.5Z" stroke="#BCBCBC" style="stroke:#BCBCBC;stroke:color(display-p3 0.7373 0.7373 0.7373);stroke-opacity:1;"/>
<path d="M8.5 11H10.1667H23.5" stroke="#21272A" style="stroke:#21272A;stroke:color(display-p3 0.1294 0.1529 0.1647);stroke-opacity:1;" stroke-width="1.5" stroke-linecap="round" stroke-linejoin="round"/>
<path d="M21.8333 11V22.6666C21.8333 23.1087 21.6577 23.5326 21.3451 23.8451C21.0326 24.1577 20.6087 24.3333 20.1666 24.3333H11.8333C11.3913 24.3333 10.9673 24.1577 10.6548 23.8451C10.3422 23.5326 10.1666 23.1087 10.1666 22.6666V11M12.6666 11V9.33329C12.6666 8.89127 12.8422 8.46734 13.1548 8.15478C13.4673 7.84222 13.8913 7.66663 14.3333 7.66663H17.6666C18.1087 7.66663 18.5326 7.84222 18.8451 8.15478C19.1577 8.46734 19.3333 8.89127 19.3333 9.33329V11" stroke="#21272A" style="stroke:#21272A;stroke:color(display-p3 0.1294 0.1529 0.1647);stroke-opacity:1;" stroke-width="1.5" stroke-linecap="round" stroke-linejoin="round"/>
<path d="M14.3334 15.1666V20.1666" stroke="#21272A" style="stroke:#21272A;stroke:color(display-p3 0.1294 0.1529 0.1647);stroke-opacity:1;" stroke-width="1.5" stroke-linecap="round" stroke-linejoin="round"/>
<path d="M17.6666 15.1666V20.1666" stroke="#21272A" style="stroke:#21272A;stroke:color(display-p3 0.1294 0.1529 0.1647);stroke-opacity:1;" stroke-width="1.5" stroke-linecap="round" stroke-linejoin="round"/>
</svg>
