<svg width="24" height="24" viewBox="0 0 24 24" fill="none" xmlns="http://www.w3.org/2000/svg">
<path d="M6.8994 13.7059L8.17418 11.1471C8.31277 10.8613 8.52357 10.6201 8.78404 10.4491C9.04451 10.2781 9.34485 10.1839 9.65292 10.1765H20.2973M20.2973 10.1765C20.557 10.176 20.8133 10.2373 21.0466 10.3557C21.2799 10.4741 21.4839 10.6463 21.6431 10.8593C21.8023 11.0723 21.9124 11.3203 21.9649 11.5843C22.0174 11.8483 22.0109 12.1213 21.946 12.3824L19.6373 17.6764C19.5426 18.0572 19.3281 18.3943 19.0278 18.634C18.7276 18.8738 18.3588 19.0026 17.98 19H5.1997C4.74891 19 4.31659 18.814 3.99783 18.4831C3.67908 18.1521 3.5 17.7033 3.5 17.2353V5.76478C3.5 5.29675 3.67908 4.84789 3.99783 4.51695C4.31659 4.18601 4.74891 4.00008 5.1997 4.00008H8.51412C8.79838 3.99719 9.07881 4.06837 9.32972 4.2071C9.58064 4.34583 9.79403 4.54769 9.95037 4.7942L10.6387 5.85301C10.7935 6.09701 11.0042 6.29729 11.2519 6.43589C11.4996 6.57449 11.7766 6.64707 12.058 6.64712H18.5976C19.0484 6.64712 19.4807 6.83304 19.7995 7.16399C20.1182 7.49493 20.2973 7.94379 20.2973 8.41181V10.1765Z" stroke="#21272A" style="stroke:#21272A;stroke:color(display-p3 0.1294 0.1529 0.1647);stroke-opacity:1;" stroke-width="1.5" stroke-linecap="round" stroke-linejoin="round"/>
</svg>