<svg width="16" height="16" viewBox="0 0 16 16" fill="none" xmlns="http://www.w3.org/2000/svg">
<g clip-path="url(#clip0_1191_14417)">
<path d="M11.5896 4.411L8.87509 1.696C8.39176 1.21266 7.60843 1.21266 7.1251 1.696L4.41054 4.41141M11.5896 4.411L14.3042 7.126C14.7875 7.60933 14.7875 8.39183 14.3042 8.87433L11.5896 11.5893M11.5896 4.411L4.41138 11.5897M4.41138 11.5897L7.12677 14.3043C7.60927 14.7877 8.39176 14.7877 8.87509 14.3043L11.5896 11.5893M4.41138 11.5897L1.69598 8.87516C1.58104 8.76045 1.48984 8.62419 1.42762 8.47419C1.3654 8.32419 1.33337 8.16339 1.33337 8.001C1.33337 7.8386 1.3654 7.6778 1.42762 7.5278C1.48984 7.3778 1.58104 7.24154 1.69598 7.12683L4.41054 4.41141M4.41054 4.41141L11.5896 11.5893" stroke="black" stroke-width="1.5"/>
</g>
<defs>
<clipPath id="clip0_1191_14417">
<rect width="16" height="16" fill="white"/>
</clipPath>
</defs>
</svg>
