<svg width="20" height="20" viewBox="0 0 20 20" fill="none" xmlns="http://www.w3.org/2000/svg">
<path d="M6.58301 4.75391C8.01648 5.0924 9.08301 6.38011 9.08301 7.91699C9.08286 9.45362 8.01623 10.7396 6.58301 11.0781V17.917H5.08301V11.0781C3.65009 10.7393 2.58316 9.4534 2.58301 7.91699C2.58301 6.38033 3.64984 5.09262 5.08301 4.75391V2.5H6.58301V4.75391ZM15.333 9.75391C16.7665 10.0924 17.833 11.3801 17.833 12.917C17.8329 14.4536 16.7662 15.7396 15.333 16.0781V17.917H13.833V16.0781C12.4001 15.7393 11.3332 14.4534 11.333 12.917C11.333 11.3803 12.3998 10.0926 13.833 9.75391V2.5H15.333V9.75391ZM14.583 11.167C13.6167 11.1672 12.833 11.9506 12.833 12.917C12.8332 13.8832 13.6168 14.6668 14.583 14.667C15.5494 14.667 16.3328 13.8833 16.333 12.917C16.333 11.9505 15.5495 11.167 14.583 11.167ZM5.83301 6.16699C4.86666 6.16717 4.08301 6.9506 4.08301 7.91699C4.08318 8.88323 4.86677 9.66682 5.83301 9.66699C6.7994 9.66699 7.58283 8.88334 7.58301 7.91699C7.58301 6.95049 6.79951 6.16699 5.83301 6.16699Z" fill="black"/>
</svg>
