<svg width="32" height="32" viewBox="0 0 32 32" fill="none" xmlns="http://www.w3.org/2000/svg">
<path d="M8 0.5H24C28.1421 0.5 31.5 3.85786 31.5 8V24C31.5 28.1421 28.1421 31.5 24 31.5H8C3.85786 31.5 0.5 28.1421 0.5 24V8C0.5 3.85786 3.85786 0.5 8 0.5Z" fill="white"/>
<path d="M8 0.5H24C28.1421 0.5 31.5 3.85786 31.5 8V24C31.5 28.1421 28.1421 31.5 24 31.5H8C3.85786 31.5 0.5 28.1421 0.5 24V8C0.5 3.85786 3.85786 0.5 8 0.5Z" stroke="#BCBCBC"/>
<path d="M17.6771 24.9844H14.3373C14.3333 24.9844 14.3294 24.9844 14.3255 24.9844C13.8255 24.9766 13.4076 24.6289 13.306 24.1406C13.3021 24.1289 13.3021 24.1133 13.2982 24.1016L13.0365 22.2344H13.0326C12.7123 22.0781 12.3998 21.8984 12.1068 21.6914L10.3529 22.3984C10.349 22.3984 10.3451 22.4023 10.3412 22.4023C9.8646 22.582 9.32944 22.3984 9.06772 21.957C9.06772 21.9531 9.06382 21.9531 9.06382 21.9492L7.39194 19.0586C7.13413 18.6172 7.23569 18.0547 7.63022 17.7266C7.63413 17.7227 7.63804 17.7188 7.64194 17.7148L9.13413 16.543L9.13022 16.5391C9.1146 16.3438 9.10679 16.168 9.10679 15.9961C9.10679 15.8203 9.1146 15.6445 9.13022 15.457L7.64585 14.293C7.63804 14.2891 7.63413 14.2852 7.63022 14.2773C7.2435 13.9492 7.14585 13.3906 7.39975 12.9531L9.07163 10.0625C9.07163 10.0586 9.07554 10.0586 9.07554 10.0547C9.33726 9.61719 9.87241 9.42969 10.349 9.60938C10.3529 9.60938 10.3568 9.61328 10.3607 9.61328L12.1146 10.3203C12.4115 10.1172 12.7201 9.9375 13.0404 9.78125L13.3021 7.91016C13.3021 7.90234 13.306 7.89453 13.306 7.89063C13.388 7.39453 13.8177 7.02734 14.3216 7.01562C14.3255 7.01562 14.3294 7.01562 14.3333 7.01562H17.6732C17.6771 7.01562 17.681 7.01562 17.6849 7.01562C18.1849 7.02344 18.6029 7.37109 18.7044 7.85937C18.7084 7.87109 18.7083 7.88672 18.7123 7.89844L18.974 9.76562H18.9779C19.2982 9.92188 19.6107 10.1016 19.9037 10.3086L21.6576 9.60156C21.6615 9.60156 21.6654 9.59766 21.6693 9.59766C22.1459 9.41406 22.681 9.60156 22.9427 10.043C22.9427 10.0469 22.9466 10.0469 22.9466 10.0508L24.6185 12.9414C24.8763 13.3828 24.7748 13.9453 24.3802 14.2734C24.3763 14.2773 24.3724 14.2812 24.3685 14.2852L22.8763 15.457C22.8763 15.4609 22.8763 15.4648 22.8763 15.4648C22.8919 15.6641 22.8998 15.8398 22.8998 16V16.0039C22.8998 16.1797 22.8919 16.3594 22.8763 16.5352L24.3685 17.7031C24.3724 17.707 24.3763 17.7109 24.3802 17.7148C24.7748 18.043 24.8763 18.6016 24.6185 19.0469L22.9466 21.9375C22.9466 21.9414 22.9427 21.9414 22.9427 21.9453C22.681 22.3828 22.1459 22.5703 21.6693 22.3906C21.6654 22.3906 21.6615 22.3867 21.6576 22.3867L19.9037 21.6797C19.6068 21.8828 19.2982 22.0625 18.9779 22.2188L18.7162 24.0898C18.7162 24.0977 18.7123 24.1055 18.7123 24.1094C18.6263 24.6055 18.1966 24.9727 17.6927 24.9844C17.6849 24.9844 17.681 24.9844 17.6771 24.9844ZM14.5091 23.7344H17.5013L17.7396 22.043C17.7982 21.6328 18.056 21.2773 18.431 21.0938C18.6966 20.9648 18.9505 20.8164 19.1927 20.6523C19.5365 20.4141 19.9779 20.3633 20.3724 20.5195L21.9584 21.1562L23.4505 18.5742L21.8255 17.3047C21.6498 17.168 21.5599 16.9453 21.5912 16.7266C21.6263 16.4883 21.6419 16.2422 21.6459 16C21.6459 15.8711 21.638 15.7305 21.6263 15.5664C21.5873 15.1445 21.7669 14.7344 22.099 14.4727L23.4466 13.4141L21.9544 10.832L20.3685 11.4688C19.9779 11.625 19.5365 11.5781 19.1888 11.3359C18.9505 11.168 18.6966 11.0195 18.4349 10.8945C18.0599 10.7148 17.7982 10.3594 17.7357 9.94531L17.5013 8.26562H14.5091L14.2708 9.95703C14.2123 10.3672 13.9544 10.7227 13.5794 10.9062C13.3138 11.0352 13.0599 11.1836 12.8177 11.3477C12.474 11.5859 12.0326 11.6367 11.638 11.4805L10.0599 10.8438L8.56772 13.4258L9.90757 14.4805C10.2396 14.7422 10.4154 15.1484 10.3802 15.5703C10.3646 15.7227 10.3607 15.8633 10.3607 16C10.3607 16.1328 10.3685 16.2734 10.3802 16.4336C10.4193 16.8555 10.2435 17.2656 9.91147 17.5273L8.56382 18.5859L10.056 21.168L11.638 20.5312C12.0287 20.375 12.4701 20.4219 12.8177 20.6641C13.056 20.832 13.3099 20.9805 13.5716 21.1055C13.9466 21.2852 14.2083 21.6406 14.2708 22.0547L14.5091 23.7344ZM16.0091 19.125C15.9076 19.125 15.8021 19.1211 15.7005 19.1094C14.8685 19.0273 14.1224 18.625 13.5912 17.9805C13.0599 17.3359 12.8138 16.5234 12.8958 15.6914C13.0638 13.9766 14.599 12.7188 16.3138 12.8867C17.7904 13.0352 18.9662 14.2148 19.1146 15.6875C19.1341 15.8906 19.1341 16.0977 19.1146 16.3047C18.9544 17.918 17.5951 19.125 16.0091 19.125ZM16.0013 14.125C15.5677 14.125 15.1537 14.2734 14.8138 14.5508C14.4271 14.8672 14.1849 15.3164 14.138 15.8164C14.0873 16.3164 14.2357 16.8008 14.556 17.1914C14.8724 17.5781 15.3216 17.8203 15.8216 17.8672C16.849 17.9687 17.7708 17.2148 17.8724 16.1836C17.8841 16.0625 17.8841 15.9375 17.8724 15.8164C17.7826 14.9297 17.0755 14.2227 16.1888 14.1328C16.1263 14.1289 16.0638 14.125 16.0013 14.125Z" fill="#8726EE"/>
</svg>
